<svg width="25" height="25" viewBox="0 0 25 25" fill="none" xmlns="http://www.w3.org/2000/svg">
<path fill-rule="evenodd" clip-rule="evenodd" d="M23.6055 2.77954H21.9808C21.694 1.96649 21.162 1.26245 20.4582 0.764451C19.7543 0.266453 18.9134 -0.000976562 18.0512 -0.000976562C17.1891 -0.000976562 16.3481 0.266453 15.6443 0.764451C14.9405 1.26245 14.4085 1.96649 14.1216 2.77954H1.38856C1.02029 2.77954 0.667103 2.92583 0.406699 3.18624C0.146294 3.44664 0 3.79983 0 4.16809C0 4.53636 0.146294 4.88955 0.406699 5.14995C0.667103 5.41036 1.02029 5.55665 1.38856 5.55665H14.1216C14.4085 6.3697 14.9405 7.07374 15.6443 7.57174C16.3481 8.06974 17.1891 8.33717 18.0512 8.33717C18.9134 8.33717 19.7543 8.06974 20.4582 7.57174C21.162 7.07374 21.694 6.3697 21.9808 5.55665H23.6055C23.9737 5.55665 24.3269 5.41036 24.5873 5.14995C24.8477 4.88955 24.994 4.53636 24.994 4.16809C24.994 3.79983 24.8477 3.44664 24.5873 3.18624C24.3269 2.92583 23.9737 2.77954 23.6055 2.77954ZM18.0512 5.55665C18.4195 5.55665 18.7727 5.41036 19.0331 5.14995C19.2935 4.88955 19.4398 4.53636 19.4398 4.16809C19.4398 3.79983 19.2935 3.44664 19.0331 3.18624C18.7727 2.92583 18.4195 2.77954 18.0512 2.77954C17.683 2.77954 17.3298 2.92583 17.0694 3.18624C16.809 3.44664 16.6627 3.79983 16.6627 4.16809C16.6627 4.53636 16.809 4.88955 17.0694 5.14995C17.3298 5.41036 17.683 5.55665 18.0512 5.55665ZM0 12.4994C0 12.1312 0.146294 11.778 0.406699 11.5176C0.667103 11.2572 1.02029 11.1109 1.38856 11.1109H3.01317C3.30005 10.2978 3.83205 9.59378 4.53586 9.09579C5.23966 8.59779 6.08061 8.33036 6.94278 8.33036C7.80495 8.33036 8.6459 8.59779 9.3497 9.09579C10.0535 9.59378 10.5855 10.2978 10.8724 11.1109H23.6055C23.9737 11.1109 24.3269 11.2572 24.5873 11.5176C24.8477 11.778 24.994 12.1312 24.994 12.4994C24.994 12.8677 24.8477 13.2209 24.5873 13.4813C24.3269 13.7417 23.9737 13.888 23.6055 13.888H10.8724C10.5855 14.701 10.0535 15.4051 9.3497 15.9031C8.6459 16.4011 7.80495 16.6685 6.94278 16.6685C6.08061 16.6685 5.23966 16.4011 4.53586 15.9031C3.83205 15.4051 3.30005 14.701 3.01317 13.888H1.38856C1.02029 13.888 0.667103 13.7417 0.406699 13.4813C0.146294 13.2209 0 12.8677 0 12.4994ZM6.94278 13.888C7.31105 13.888 7.66423 13.7417 7.92464 13.4813C8.18504 13.2209 8.33134 12.8677 8.33134 12.4994C8.33134 12.1312 8.18504 11.778 7.92464 11.5176C7.66423 11.2572 7.31105 11.1109 6.94278 11.1109C6.57451 11.1109 6.22133 11.2572 5.96092 11.5176C5.70052 11.778 5.55422 12.1312 5.55422 12.4994C5.55422 12.8677 5.70052 13.2209 5.96092 13.4813C6.22133 13.7417 6.57451 13.888 6.94278 13.888ZM1.38856 19.4422C1.02029 19.4422 0.667103 19.5885 0.406699 19.8489C0.146294 20.1093 0 20.4625 0 20.8308C0 21.199 0.146294 21.5522 0.406699 21.8126C0.667103 22.073 1.02029 22.2193 1.38856 22.2193H14.1216C14.4085 23.0324 14.9405 23.7364 15.6443 24.2344C16.3481 24.7324 17.1891 24.9998 18.0512 24.9998C18.9134 24.9998 19.7543 24.7324 20.4582 24.2344C21.162 23.7364 21.694 23.0324 21.9808 22.2193H23.6055C23.9737 22.2193 24.3269 22.073 24.5873 21.8126C24.8477 21.5522 24.994 21.199 24.994 20.8308C24.994 20.4625 24.8477 20.1093 24.5873 19.8489C24.3269 19.5885 23.9737 19.4422 23.6055 19.4422H21.9808C21.694 18.6292 21.162 17.9251 20.4582 17.4271C19.7543 16.9291 18.9134 16.6617 18.0512 16.6617C17.1891 16.6617 16.3481 16.9291 15.6443 17.4271C14.9405 17.9251 14.4085 18.6292 14.1216 19.4422H1.38856ZM19.4398 20.8308C19.4398 21.199 19.2935 21.5522 19.0331 21.8126C18.7727 22.073 18.4195 22.2193 18.0512 22.2193C17.683 22.2193 17.3298 22.073 17.0694 21.8126C16.809 21.5522 16.6627 21.199 16.6627 20.8308C16.6627 20.4625 16.809 20.1093 17.0694 19.8489C17.3298 19.5885 17.683 19.4422 18.0512 19.4422C18.4195 19.4422 18.7727 19.5885 19.0331 19.8489C19.2935 20.1093 19.4398 20.4625 19.4398 20.8308Z" fill="black"/>
</svg>
