<svg width="24" height="25" viewBox="0 0 24 25" fill="none" xmlns="http://www.w3.org/2000/svg">
<path d="M21.1688 13.5456C21.2182 13.1509 21.2552 12.7561 21.2552 12.3366C21.2552 11.9172 21.2182 11.5224 21.1688 11.1276L23.7719 9.0921C24.0063 8.90705 24.068 8.57396 23.9199 8.30256L21.4526 4.03408C21.3046 3.76267 20.9715 3.66398 20.7001 3.76267L17.6282 4.99634C16.9867 4.50287 16.2959 4.09576 15.5433 3.78735L15.0745 0.518139C15.0375 0.22206 14.7785 0 14.4701 0H9.5354C9.22698 0 8.96791 0.22206 8.9309 0.518139L8.46211 3.78735C7.70957 4.09576 7.01872 4.51521 6.37722 4.99634L3.30539 3.76267C3.02165 3.65165 2.7009 3.76267 2.55286 4.03408L0.0855318 8.30256C-0.0748444 8.57396 -0.00082446 8.90705 0.233572 9.0921L2.8366 11.1276C2.78726 11.5224 2.75025 11.9295 2.75025 12.3366C2.75025 12.7437 2.78726 13.1509 2.8366 13.5456L0.233572 15.5812C-0.00082446 15.7662 -0.0625078 16.0993 0.0855318 16.3707L2.55286 20.6392C2.7009 20.9106 3.03399 21.0093 3.30539 20.9106L6.37722 19.6769C7.01872 20.1704 7.70957 20.5775 8.46211 20.8859L8.9309 24.1551C8.96791 24.4512 9.22698 24.6733 9.5354 24.6733H14.4701C14.7785 24.6733 15.0375 24.4512 15.0745 24.1551L15.5433 20.8859C16.2959 20.5775 16.9867 20.1581 17.6282 19.6769L20.7001 20.9106C20.9838 21.0216 21.3046 20.9106 21.4526 20.6392L23.9199 16.3707C24.068 16.0993 24.0063 15.7662 23.7719 15.5812L21.1688 13.5456ZM12.0027 16.6545C9.62175 16.6545 7.6849 14.7176 7.6849 12.3366C7.6849 9.95567 9.62175 8.01882 12.0027 8.01882C14.3837 8.01882 16.3205 9.95567 16.3205 12.3366C16.3205 14.7176 14.3837 16.6545 12.0027 16.6545Z" fill="black"/>
</svg>
